<mxfile host="app.diagrams.net" modified="2024-03-31T14:43:24.402Z" agent="Mozilla/5.0 (Windows NT 10.0; Win64; x64) AppleWebKit/537.36 (KHTML, like Gecko) Chrome/123.0.0.0 Safari/537.36" etag="thDGyd9jq4V-xA8aQzPf" version="24.2.1" type="github">
  <diagram name="PÃ¡gina-1" id="7CKwikOJ7WSuvlhB8NjQ">
    <mxGraphModel dx="2049" dy="1114" grid="1" gridSize="10" guides="1" tooltips="1" connect="1" arrows="1" fold="1" page="1" pageScale="1" pageWidth="827" pageHeight="1169" math="0" shadow="0">
      <root>
        <mxCell id="0" />
        <mxCell id="1" parent="0" />
        <mxCell id="ya6__EAlXVEsQqQnVI8f-1" value="42) A = B * C + (B + C)" style="text;whiteSpace=wrap;html=1;" parent="1" vertex="1">
          <mxGeometry x="10" width="130" height="40" as="geometry" />
        </mxCell>
        <mxCell id="ya6__EAlXVEsQqQnVI8f-13" style="edgeStyle=orthogonalEdgeStyle;rounded=0;orthogonalLoop=1;jettySize=auto;html=1;exitX=0.5;exitY=1;exitDx=0;exitDy=0;entryX=0.5;entryY=0;entryDx=0;entryDy=0;" parent="1" source="ya6__EAlXVEsQqQnVI8f-2" target="ya6__EAlXVEsQqQnVI8f-3" edge="1">
          <mxGeometry relative="1" as="geometry" />
        </mxCell>
        <mxCell id="ya6__EAlXVEsQqQnVI8f-14" style="edgeStyle=orthogonalEdgeStyle;rounded=0;orthogonalLoop=1;jettySize=auto;html=1;exitX=0.5;exitY=1;exitDx=0;exitDy=0;entryX=0.5;entryY=0;entryDx=0;entryDy=0;" parent="1" source="ya6__EAlXVEsQqQnVI8f-2" target="ya6__EAlXVEsQqQnVI8f-4" edge="1">
          <mxGeometry relative="1" as="geometry">
            <Array as="points">
              <mxPoint x="63" y="90" />
              <mxPoint x="100" y="90" />
            </Array>
          </mxGeometry>
        </mxCell>
        <mxCell id="ya6__EAlXVEsQqQnVI8f-42" value="&lt;font style=&quot;font-size: 12px;&quot;&gt;=&lt;/font&gt;" style="edgeLabel;html=1;align=center;verticalAlign=middle;resizable=0;points=[];" parent="ya6__EAlXVEsQqQnVI8f-14" vertex="1" connectable="0">
          <mxGeometry x="-0.7161" y="1" relative="1" as="geometry">
            <mxPoint x="-1" y="-1" as="offset" />
          </mxGeometry>
        </mxCell>
        <mxCell id="ya6__EAlXVEsQqQnVI8f-2" value="&amp;lt;atr&amp;gt;" style="text;whiteSpace=wrap;html=1;" parent="1" vertex="1">
          <mxGeometry x="45" y="40" width="35" height="30" as="geometry" />
        </mxCell>
        <mxCell id="ZCPihoy_lIyPwxzsgWCn-16" style="edgeStyle=orthogonalEdgeStyle;rounded=0;orthogonalLoop=1;jettySize=auto;html=1;exitX=0.5;exitY=1;exitDx=0;exitDy=0;" parent="1" source="ya6__EAlXVEsQqQnVI8f-3" edge="1">
          <mxGeometry relative="1" as="geometry">
            <mxPoint x="15.068965517241395" y="180" as="targetPoint" />
          </mxGeometry>
        </mxCell>
        <mxCell id="ya6__EAlXVEsQqQnVI8f-3" value="&amp;lt;id&amp;gt;" style="text;whiteSpace=wrap;html=1;" parent="1" vertex="1">
          <mxGeometry y="110" width="30" height="30" as="geometry" />
        </mxCell>
        <mxCell id="ya6__EAlXVEsQqQnVI8f-17" style="edgeStyle=orthogonalEdgeStyle;rounded=0;orthogonalLoop=1;jettySize=auto;html=1;exitX=0.5;exitY=1;exitDx=0;exitDy=0;entryX=0.5;entryY=0;entryDx=0;entryDy=0;" parent="1" source="ya6__EAlXVEsQqQnVI8f-4" target="ya6__EAlXVEsQqQnVI8f-16" edge="1">
          <mxGeometry relative="1" as="geometry" />
        </mxCell>
        <mxCell id="ya6__EAlXVEsQqQnVI8f-19" style="edgeStyle=orthogonalEdgeStyle;rounded=0;orthogonalLoop=1;jettySize=auto;html=1;exitX=1;exitY=1;exitDx=0;exitDy=0;entryX=0.75;entryY=0;entryDx=0;entryDy=0;" parent="1" source="ya6__EAlXVEsQqQnVI8f-4" target="ya6__EAlXVEsQqQnVI8f-16" edge="1">
          <mxGeometry relative="1" as="geometry" />
        </mxCell>
        <mxCell id="ya6__EAlXVEsQqQnVI8f-21" style="edgeStyle=orthogonalEdgeStyle;rounded=0;orthogonalLoop=1;jettySize=auto;html=1;exitX=0;exitY=1;exitDx=0;exitDy=0;entryX=0.25;entryY=0;entryDx=0;entryDy=0;" parent="1" source="ya6__EAlXVEsQqQnVI8f-4" target="ya6__EAlXVEsQqQnVI8f-16" edge="1">
          <mxGeometry relative="1" as="geometry" />
        </mxCell>
        <mxCell id="ya6__EAlXVEsQqQnVI8f-25" style="edgeStyle=none;rounded=0;orthogonalLoop=1;jettySize=auto;html=1;exitX=0;exitY=1;exitDx=0;exitDy=0;endArrow=none;endFill=0;entryX=1;entryY=1;entryDx=0;entryDy=0;" parent="1" source="ya6__EAlXVEsQqQnVI8f-4" target="ya6__EAlXVEsQqQnVI8f-4" edge="1">
          <mxGeometry relative="1" as="geometry">
            <mxPoint x="130" y="140" as="targetPoint" />
          </mxGeometry>
        </mxCell>
        <mxCell id="ya6__EAlXVEsQqQnVI8f-4" value="&amp;lt;exp&amp;gt;" style="text;whiteSpace=wrap;html=1;" parent="1" vertex="1">
          <mxGeometry x="80" y="110" width="40" height="30" as="geometry" />
        </mxCell>
        <mxCell id="ya6__EAlXVEsQqQnVI8f-45" style="edgeStyle=orthogonalEdgeStyle;rounded=0;orthogonalLoop=1;jettySize=auto;html=1;exitX=0.25;exitY=1;exitDx=0;exitDy=0;" parent="1" source="ya6__EAlXVEsQqQnVI8f-16" edge="1">
          <mxGeometry relative="1" as="geometry">
            <mxPoint x="80" y="220" as="targetPoint" />
          </mxGeometry>
        </mxCell>
        <mxCell id="ya6__EAlXVEsQqQnVI8f-16" value="&amp;lt;exp&amp;gt; + &amp;lt;ter&amp;gt;" style="text;whiteSpace=wrap;html=1;" parent="1" vertex="1">
          <mxGeometry x="60" y="170" width="80" height="20" as="geometry" />
        </mxCell>
        <mxCell id="ya6__EAlXVEsQqQnVI8f-44" style="edgeStyle=orthogonalEdgeStyle;rounded=0;orthogonalLoop=1;jettySize=auto;html=1;exitX=0.5;exitY=1;exitDx=0;exitDy=0;" parent="1" source="ya6__EAlXVEsQqQnVI8f-4" target="ya6__EAlXVEsQqQnVI8f-4" edge="1">
          <mxGeometry relative="1" as="geometry" />
        </mxCell>
        <mxCell id="ya6__EAlXVEsQqQnVI8f-47" style="edgeStyle=orthogonalEdgeStyle;rounded=0;orthogonalLoop=1;jettySize=auto;html=1;exitX=0.5;exitY=1;exitDx=0;exitDy=0;entryX=0.5;entryY=0;entryDx=0;entryDy=0;" parent="1" source="ya6__EAlXVEsQqQnVI8f-51" target="ya6__EAlXVEsQqQnVI8f-52" edge="1">
          <mxGeometry relative="1" as="geometry" />
        </mxCell>
        <mxCell id="ya6__EAlXVEsQqQnVI8f-48" style="edgeStyle=orthogonalEdgeStyle;rounded=0;orthogonalLoop=1;jettySize=auto;html=1;exitX=1;exitY=1;exitDx=0;exitDy=0;entryX=0.75;entryY=0;entryDx=0;entryDy=0;" parent="1" source="ya6__EAlXVEsQqQnVI8f-51" target="ya6__EAlXVEsQqQnVI8f-52" edge="1">
          <mxGeometry relative="1" as="geometry" />
        </mxCell>
        <mxCell id="ya6__EAlXVEsQqQnVI8f-49" style="edgeStyle=orthogonalEdgeStyle;rounded=0;orthogonalLoop=1;jettySize=auto;html=1;exitX=0;exitY=1;exitDx=0;exitDy=0;entryX=0.25;entryY=0;entryDx=0;entryDy=0;" parent="1" source="ya6__EAlXVEsQqQnVI8f-51" target="ya6__EAlXVEsQqQnVI8f-52" edge="1">
          <mxGeometry relative="1" as="geometry" />
        </mxCell>
        <mxCell id="ya6__EAlXVEsQqQnVI8f-50" style="edgeStyle=none;rounded=0;orthogonalLoop=1;jettySize=auto;html=1;exitX=0;exitY=1;exitDx=0;exitDy=0;endArrow=none;endFill=0;entryX=1;entryY=1;entryDx=0;entryDy=0;" parent="1" source="ya6__EAlXVEsQqQnVI8f-51" target="ya6__EAlXVEsQqQnVI8f-51" edge="1">
          <mxGeometry relative="1" as="geometry">
            <mxPoint x="115" y="250" as="targetPoint" />
          </mxGeometry>
        </mxCell>
        <mxCell id="ya6__EAlXVEsQqQnVI8f-51" value="&amp;lt;ter&amp;gt;" style="text;whiteSpace=wrap;html=1;" parent="1" vertex="1">
          <mxGeometry x="65" y="220" width="30" height="30" as="geometry" />
        </mxCell>
        <mxCell id="ZCPihoy_lIyPwxzsgWCn-20" style="edgeStyle=orthogonalEdgeStyle;rounded=0;orthogonalLoop=1;jettySize=auto;html=1;exitX=0.25;exitY=1;exitDx=0;exitDy=0;" parent="1" source="ya6__EAlXVEsQqQnVI8f-52" edge="1">
          <mxGeometry relative="1" as="geometry">
            <mxPoint x="62.83333333333337" y="340" as="targetPoint" />
          </mxGeometry>
        </mxCell>
        <mxCell id="ZCPihoy_lIyPwxzsgWCn-21" style="edgeStyle=orthogonalEdgeStyle;rounded=0;orthogonalLoop=1;jettySize=auto;html=1;exitX=0.75;exitY=1;exitDx=0;exitDy=0;" parent="1" source="ya6__EAlXVEsQqQnVI8f-52" edge="1">
          <mxGeometry relative="1" as="geometry">
            <mxPoint x="97.83333333333337" y="340" as="targetPoint" />
          </mxGeometry>
        </mxCell>
        <mxCell id="ya6__EAlXVEsQqQnVI8f-52" value="&amp;lt;ter&amp;gt; * &amp;lt;fat&amp;gt;" style="text;whiteSpace=wrap;html=1;" parent="1" vertex="1">
          <mxGeometry x="45" y="280" width="70" height="20" as="geometry" />
        </mxCell>
        <mxCell id="ya6__EAlXVEsQqQnVI8f-53" style="edgeStyle=orthogonalEdgeStyle;rounded=0;orthogonalLoop=1;jettySize=auto;html=1;exitX=0.5;exitY=1;exitDx=0;exitDy=0;" parent="1" source="ya6__EAlXVEsQqQnVI8f-51" target="ya6__EAlXVEsQqQnVI8f-51" edge="1">
          <mxGeometry relative="1" as="geometry" />
        </mxCell>
        <mxCell id="ya6__EAlXVEsQqQnVI8f-70" style="edgeStyle=orthogonalEdgeStyle;rounded=0;orthogonalLoop=1;jettySize=auto;html=1;exitX=0.5;exitY=1;exitDx=0;exitDy=0;" parent="1" source="ya6__EAlXVEsQqQnVI8f-58" target="ya6__EAlXVEsQqQnVI8f-62" edge="1">
          <mxGeometry relative="1" as="geometry" />
        </mxCell>
        <mxCell id="ya6__EAlXVEsQqQnVI8f-58" value="&amp;lt;fat&amp;gt;" style="text;whiteSpace=wrap;html=1;" parent="1" vertex="1">
          <mxGeometry x="140" y="220" width="30" height="30" as="geometry" />
        </mxCell>
        <mxCell id="ya6__EAlXVEsQqQnVI8f-61" style="edgeStyle=orthogonalEdgeStyle;rounded=0;orthogonalLoop=1;jettySize=auto;html=1;exitX=0.75;exitY=1;exitDx=0;exitDy=0;entryX=0.5;entryY=0.089;entryDx=0;entryDy=0;entryPerimeter=0;" parent="1" source="ya6__EAlXVEsQqQnVI8f-16" target="ya6__EAlXVEsQqQnVI8f-58" edge="1">
          <mxGeometry relative="1" as="geometry" />
        </mxCell>
        <mxCell id="ZCPihoy_lIyPwxzsgWCn-12" style="edgeStyle=orthogonalEdgeStyle;rounded=0;orthogonalLoop=1;jettySize=auto;html=1;exitX=0.5;exitY=1;exitDx=0;exitDy=0;endArrow=none;endFill=0;" parent="1" source="ya6__EAlXVEsQqQnVI8f-62" edge="1">
          <mxGeometry relative="1" as="geometry">
            <mxPoint x="155" y="340" as="targetPoint" />
          </mxGeometry>
        </mxCell>
        <mxCell id="ya6__EAlXVEsQqQnVI8f-62" value="( &amp;lt;exp&amp;gt; )" style="text;whiteSpace=wrap;html=1;" parent="1" vertex="1">
          <mxGeometry x="125" y="280" width="60" height="30" as="geometry" />
        </mxCell>
        <mxCell id="ZCPihoy_lIyPwxzsgWCn-1" style="edgeStyle=orthogonalEdgeStyle;rounded=0;orthogonalLoop=1;jettySize=auto;html=1;exitX=0.5;exitY=1;exitDx=0;exitDy=0;entryX=0.5;entryY=0;entryDx=0;entryDy=0;" parent="1" edge="1">
          <mxGeometry relative="1" as="geometry">
            <mxPoint x="154.76" y="340" as="sourcePoint" />
            <mxPoint x="154.76" y="370" as="targetPoint" />
          </mxGeometry>
        </mxCell>
        <mxCell id="ZCPihoy_lIyPwxzsgWCn-2" style="edgeStyle=orthogonalEdgeStyle;rounded=0;orthogonalLoop=1;jettySize=auto;html=1;exitX=1;exitY=1;exitDx=0;exitDy=0;entryX=0.75;entryY=0;entryDx=0;entryDy=0;" parent="1" edge="1">
          <mxGeometry relative="1" as="geometry">
            <mxPoint x="174.76" y="340" as="sourcePoint" />
            <mxPoint x="174.76" y="370" as="targetPoint" />
          </mxGeometry>
        </mxCell>
        <mxCell id="ZCPihoy_lIyPwxzsgWCn-3" style="edgeStyle=orthogonalEdgeStyle;rounded=0;orthogonalLoop=1;jettySize=auto;html=1;exitX=0;exitY=1;exitDx=0;exitDy=0;entryX=0.25;entryY=0;entryDx=0;entryDy=0;" parent="1" edge="1">
          <mxGeometry relative="1" as="geometry">
            <mxPoint x="134.76" y="340" as="sourcePoint" />
            <mxPoint x="134.76" y="370" as="targetPoint" />
          </mxGeometry>
        </mxCell>
        <mxCell id="ZCPihoy_lIyPwxzsgWCn-4" style="edgeStyle=none;rounded=0;orthogonalLoop=1;jettySize=auto;html=1;exitX=0;exitY=1;exitDx=0;exitDy=0;endArrow=none;endFill=0;entryX=1;entryY=1;entryDx=0;entryDy=0;" parent="1" edge="1">
          <mxGeometry relative="1" as="geometry">
            <mxPoint x="174.76" y="340" as="targetPoint" />
            <mxPoint x="134.76" y="340" as="sourcePoint" />
          </mxGeometry>
        </mxCell>
        <mxCell id="ZCPihoy_lIyPwxzsgWCn-36" style="edgeStyle=orthogonalEdgeStyle;rounded=0;orthogonalLoop=1;jettySize=auto;html=1;exitX=0.25;exitY=1;exitDx=0;exitDy=0;" parent="1" source="ZCPihoy_lIyPwxzsgWCn-6" target="ZCPihoy_lIyPwxzsgWCn-35" edge="1">
          <mxGeometry relative="1" as="geometry" />
        </mxCell>
        <mxCell id="ZCPihoy_lIyPwxzsgWCn-50" style="edgeStyle=orthogonalEdgeStyle;rounded=0;orthogonalLoop=1;jettySize=auto;html=1;exitX=0.75;exitY=1;exitDx=0;exitDy=0;entryX=0.5;entryY=0;entryDx=0;entryDy=0;" parent="1" source="ZCPihoy_lIyPwxzsgWCn-6" target="ZCPihoy_lIyPwxzsgWCn-46" edge="1">
          <mxGeometry relative="1" as="geometry" />
        </mxCell>
        <mxCell id="ZCPihoy_lIyPwxzsgWCn-6" value="&amp;lt;exp&amp;gt; + &amp;lt;ter&amp;gt;" style="text;whiteSpace=wrap;html=1;" parent="1" vertex="1">
          <mxGeometry x="115" y="380" width="80" height="20" as="geometry" />
        </mxCell>
        <mxCell id="ZCPihoy_lIyPwxzsgWCn-7" style="edgeStyle=orthogonalEdgeStyle;rounded=0;orthogonalLoop=1;jettySize=auto;html=1;exitX=0.5;exitY=1;exitDx=0;exitDy=0;" parent="1" edge="1">
          <mxGeometry relative="1" as="geometry">
            <mxPoint x="154.76" y="340" as="sourcePoint" />
            <mxPoint x="154.76" y="340" as="targetPoint" />
          </mxGeometry>
        </mxCell>
        <mxCell id="ZCPihoy_lIyPwxzsgWCn-17" value="&lt;span style=&quot;color: rgb(0, 0, 0); font-family: Helvetica; font-size: 12px; font-style: normal; font-variant-ligatures: normal; font-variant-caps: normal; font-weight: 400; letter-spacing: normal; orphans: 2; text-align: left; text-indent: 0px; text-transform: none; widows: 2; word-spacing: 0px; -webkit-text-stroke-width: 0px; white-space: normal; background-color: rgb(251, 251, 251); text-decoration-thickness: initial; text-decoration-style: initial; text-decoration-color: initial; display: inline !important; float: none;&quot;&gt;A&lt;/span&gt;" style="text;whiteSpace=wrap;html=1;" parent="1" vertex="1">
          <mxGeometry x="10" y="180" width="10" height="30" as="geometry" />
        </mxCell>
        <mxCell id="ZCPihoy_lIyPwxzsgWCn-26" style="edgeStyle=orthogonalEdgeStyle;rounded=0;orthogonalLoop=1;jettySize=auto;html=1;exitX=0.5;exitY=1;exitDx=0;exitDy=0;entryX=0.5;entryY=0;entryDx=0;entryDy=0;" parent="1" source="ZCPihoy_lIyPwxzsgWCn-22" target="ZCPihoy_lIyPwxzsgWCn-24" edge="1">
          <mxGeometry relative="1" as="geometry" />
        </mxCell>
        <mxCell id="ZCPihoy_lIyPwxzsgWCn-22" value="&lt;span style=&quot;color: rgb(0, 0, 0); font-family: Helvetica; font-size: 12px; font-style: normal; font-variant-ligatures: normal; font-variant-caps: normal; font-weight: 400; letter-spacing: normal; orphans: 2; text-align: left; text-indent: 0px; text-transform: none; widows: 2; word-spacing: 0px; -webkit-text-stroke-width: 0px; white-space: normal; background-color: rgb(251, 251, 251); text-decoration-thickness: initial; text-decoration-style: initial; text-decoration-color: initial; display: inline !important; float: none;&quot;&gt;&amp;lt;fat&amp;gt;&lt;/span&gt;" style="text;whiteSpace=wrap;html=1;" parent="1" vertex="1">
          <mxGeometry x="50" y="340" width="30" height="30" as="geometry" />
        </mxCell>
        <mxCell id="ZCPihoy_lIyPwxzsgWCn-23" style="edgeStyle=orthogonalEdgeStyle;rounded=0;orthogonalLoop=1;jettySize=auto;html=1;exitX=0.5;exitY=1;exitDx=0;exitDy=0;" parent="1" source="ZCPihoy_lIyPwxzsgWCn-24" edge="1">
          <mxGeometry relative="1" as="geometry">
            <mxPoint x="65.0689655172414" y="460" as="targetPoint" />
          </mxGeometry>
        </mxCell>
        <mxCell id="ZCPihoy_lIyPwxzsgWCn-24" value="&amp;lt;id&amp;gt;" style="text;whiteSpace=wrap;html=1;" parent="1" vertex="1">
          <mxGeometry x="50" y="400" width="30" height="30" as="geometry" />
        </mxCell>
        <mxCell id="ZCPihoy_lIyPwxzsgWCn-25" value="&lt;span style=&quot;color: rgb(0, 0, 0); font-family: Helvetica; font-size: 12px; font-style: normal; font-variant-ligatures: normal; font-variant-caps: normal; font-weight: 400; letter-spacing: normal; orphans: 2; text-align: left; text-indent: 0px; text-transform: none; widows: 2; word-spacing: 0px; -webkit-text-stroke-width: 0px; white-space: normal; background-color: rgb(251, 251, 251); text-decoration-thickness: initial; text-decoration-style: initial; text-decoration-color: initial; display: inline !important; float: none;&quot;&gt;B&lt;/span&gt;" style="text;whiteSpace=wrap;html=1;" parent="1" vertex="1">
          <mxGeometry x="60" y="460" width="10" height="30" as="geometry" />
        </mxCell>
        <mxCell id="ZCPihoy_lIyPwxzsgWCn-27" style="edgeStyle=orthogonalEdgeStyle;rounded=0;orthogonalLoop=1;jettySize=auto;html=1;exitX=0.5;exitY=1;exitDx=0;exitDy=0;" parent="1" source="ZCPihoy_lIyPwxzsgWCn-28" edge="1">
          <mxGeometry relative="1" as="geometry">
            <mxPoint x="100.0689655172414" y="400" as="targetPoint" />
          </mxGeometry>
        </mxCell>
        <mxCell id="ZCPihoy_lIyPwxzsgWCn-28" value="&amp;lt;id&amp;gt;" style="text;whiteSpace=wrap;html=1;" parent="1" vertex="1">
          <mxGeometry x="85" y="340" width="30" height="30" as="geometry" />
        </mxCell>
        <mxCell id="ZCPihoy_lIyPwxzsgWCn-29" value="&lt;span style=&quot;color: rgb(0, 0, 0); font-family: Helvetica; font-size: 12px; font-style: normal; font-variant-ligatures: normal; font-variant-caps: normal; font-weight: 400; letter-spacing: normal; orphans: 2; text-align: left; text-indent: 0px; text-transform: none; widows: 2; word-spacing: 0px; -webkit-text-stroke-width: 0px; white-space: normal; background-color: rgb(251, 251, 251); text-decoration-thickness: initial; text-decoration-style: initial; text-decoration-color: initial; display: inline !important; float: none;&quot;&gt;C&lt;/span&gt;" style="text;whiteSpace=wrap;html=1;" parent="1" vertex="1">
          <mxGeometry x="95" y="400" width="10" height="30" as="geometry" />
        </mxCell>
        <mxCell id="ZCPihoy_lIyPwxzsgWCn-30" style="edgeStyle=orthogonalEdgeStyle;rounded=0;orthogonalLoop=1;jettySize=auto;html=1;exitX=0.5;exitY=1;exitDx=0;exitDy=0;entryX=0.5;entryY=0;entryDx=0;entryDy=0;" parent="1" source="ZCPihoy_lIyPwxzsgWCn-31" target="ZCPihoy_lIyPwxzsgWCn-33" edge="1">
          <mxGeometry relative="1" as="geometry" />
        </mxCell>
        <mxCell id="ZCPihoy_lIyPwxzsgWCn-31" value="&lt;span style=&quot;color: rgb(0, 0, 0); font-family: Helvetica; font-size: 12px; font-style: normal; font-variant-ligatures: normal; font-variant-caps: normal; font-weight: 400; letter-spacing: normal; orphans: 2; text-align: left; text-indent: 0px; text-transform: none; widows: 2; word-spacing: 0px; -webkit-text-stroke-width: 0px; white-space: normal; background-color: rgb(251, 251, 251); text-decoration-thickness: initial; text-decoration-style: initial; text-decoration-color: initial; display: inline !important; float: none;&quot;&gt;&amp;lt;fat&amp;gt;&lt;/span&gt;" style="text;whiteSpace=wrap;html=1;" parent="1" vertex="1">
          <mxGeometry x="120" y="500" width="30" height="30" as="geometry" />
        </mxCell>
        <mxCell id="ZCPihoy_lIyPwxzsgWCn-32" style="edgeStyle=orthogonalEdgeStyle;rounded=0;orthogonalLoop=1;jettySize=auto;html=1;exitX=0.5;exitY=1;exitDx=0;exitDy=0;" parent="1" source="ZCPihoy_lIyPwxzsgWCn-33" edge="1">
          <mxGeometry relative="1" as="geometry">
            <mxPoint x="135.0689655172414" y="620" as="targetPoint" />
          </mxGeometry>
        </mxCell>
        <mxCell id="ZCPihoy_lIyPwxzsgWCn-33" value="&amp;lt;id&amp;gt;" style="text;whiteSpace=wrap;html=1;" parent="1" vertex="1">
          <mxGeometry x="120" y="560" width="30" height="30" as="geometry" />
        </mxCell>
        <mxCell id="ZCPihoy_lIyPwxzsgWCn-34" value="&lt;span style=&quot;color: rgb(0, 0, 0); font-family: Helvetica; font-size: 12px; font-style: normal; font-variant-ligatures: normal; font-variant-caps: normal; font-weight: 400; letter-spacing: normal; orphans: 2; text-align: left; text-indent: 0px; text-transform: none; widows: 2; word-spacing: 0px; -webkit-text-stroke-width: 0px; white-space: normal; background-color: rgb(251, 251, 251); text-decoration-thickness: initial; text-decoration-style: initial; text-decoration-color: initial; display: inline !important; float: none;&quot;&gt;B&lt;/span&gt;" style="text;whiteSpace=wrap;html=1;" parent="1" vertex="1">
          <mxGeometry x="130" y="620" width="10" height="30" as="geometry" />
        </mxCell>
        <mxCell id="ZCPihoy_lIyPwxzsgWCn-39" style="edgeStyle=orthogonalEdgeStyle;rounded=0;orthogonalLoop=1;jettySize=auto;html=1;" parent="1" source="ZCPihoy_lIyPwxzsgWCn-35" target="ZCPihoy_lIyPwxzsgWCn-31" edge="1">
          <mxGeometry relative="1" as="geometry" />
        </mxCell>
        <mxCell id="ZCPihoy_lIyPwxzsgWCn-35" value="&amp;lt;ter&amp;gt;" style="text;html=1;align=center;verticalAlign=middle;resizable=0;points=[];autosize=1;strokeColor=none;fillColor=none;" parent="1" vertex="1">
          <mxGeometry x="110" y="440" width="50" height="30" as="geometry" />
        </mxCell>
        <mxCell id="ZCPihoy_lIyPwxzsgWCn-45" style="edgeStyle=orthogonalEdgeStyle;rounded=0;orthogonalLoop=1;jettySize=auto;html=1;exitX=0.5;exitY=1;exitDx=0;exitDy=0;entryX=0.5;entryY=0;entryDx=0;entryDy=0;" parent="1" source="ZCPihoy_lIyPwxzsgWCn-46" target="ZCPihoy_lIyPwxzsgWCn-48" edge="1">
          <mxGeometry relative="1" as="geometry" />
        </mxCell>
        <mxCell id="ZCPihoy_lIyPwxzsgWCn-46" value="&lt;span style=&quot;color: rgb(0, 0, 0); font-family: Helvetica; font-size: 12px; font-style: normal; font-variant-ligatures: normal; font-variant-caps: normal; font-weight: 400; letter-spacing: normal; orphans: 2; text-align: left; text-indent: 0px; text-transform: none; widows: 2; word-spacing: 0px; -webkit-text-stroke-width: 0px; white-space: normal; background-color: rgb(251, 251, 251); text-decoration-thickness: initial; text-decoration-style: initial; text-decoration-color: initial; display: inline !important; float: none;&quot;&gt;&amp;lt;fat&amp;gt;&lt;/span&gt;" style="text;whiteSpace=wrap;html=1;" parent="1" vertex="1">
          <mxGeometry x="160" y="440" width="30" height="30" as="geometry" />
        </mxCell>
        <mxCell id="ZCPihoy_lIyPwxzsgWCn-47" style="edgeStyle=orthogonalEdgeStyle;rounded=0;orthogonalLoop=1;jettySize=auto;html=1;exitX=0.5;exitY=1;exitDx=0;exitDy=0;" parent="1" source="ZCPihoy_lIyPwxzsgWCn-48" edge="1">
          <mxGeometry relative="1" as="geometry">
            <mxPoint x="175.0689655172414" y="560" as="targetPoint" />
          </mxGeometry>
        </mxCell>
        <mxCell id="ZCPihoy_lIyPwxzsgWCn-48" value="&amp;lt;id&amp;gt;" style="text;whiteSpace=wrap;html=1;" parent="1" vertex="1">
          <mxGeometry x="160" y="500" width="30" height="30" as="geometry" />
        </mxCell>
        <mxCell id="ZCPihoy_lIyPwxzsgWCn-49" value="&lt;span style=&quot;color: rgb(0, 0, 0); font-family: Helvetica; font-size: 12px; font-style: normal; font-variant-ligatures: normal; font-variant-caps: normal; font-weight: 400; letter-spacing: normal; orphans: 2; text-align: left; text-indent: 0px; text-transform: none; widows: 2; word-spacing: 0px; -webkit-text-stroke-width: 0px; white-space: normal; background-color: rgb(251, 251, 251); text-decoration-thickness: initial; text-decoration-style: initial; text-decoration-color: initial; display: inline !important; float: none;&quot;&gt;C&lt;/span&gt;" style="text;whiteSpace=wrap;html=1;" parent="1" vertex="1">
          <mxGeometry x="170" y="560" width="10" height="30" as="geometry" />
        </mxCell>
        <mxCell id="ZCPihoy_lIyPwxzsgWCn-53" value="DEE:&lt;span style=&quot;background-color: initial; white-space: pre;&quot;&gt;&#x9;&lt;/span&gt;&lt;span style=&quot;background-color: initial; white-space: pre;&quot;&gt;&#x9;&lt;/span&gt;&lt;span style=&quot;background-color: initial; white-space: pre;&quot;&gt;&#x9;&lt;/span&gt;&lt;span style=&quot;background-color: initial; white-space: pre;&quot;&gt;&#x9;&lt;/span&gt;&lt;div&gt;&amp;lt;atr&amp;gt;&lt;br&gt;&amp;lt;id&amp;gt; = &amp;lt;exp&amp;gt;&lt;div&gt;A = &amp;lt;exp&amp;gt;&lt;/div&gt;&lt;div&gt;A = &amp;lt;exp&amp;gt; + &amp;lt;ter&amp;gt;&lt;/div&gt;&lt;div&gt;A = &amp;lt;ter&amp;gt; + &amp;lt;ter&amp;gt;&lt;/div&gt;&lt;div&gt;A = &amp;lt;ter&amp;gt; * &amp;lt;fat&amp;gt; + &amp;lt;ter&amp;gt;&lt;/div&gt;&lt;div&gt;A = &amp;lt;ter&amp;gt; * &amp;lt;fat&amp;gt; + &amp;lt;ter&amp;gt;&lt;/div&gt;&lt;div&gt;A = &amp;lt;fat&amp;gt; * &amp;lt;fat&amp;gt; + &amp;lt;ter&amp;gt;&lt;/div&gt;&lt;div&gt;A = &amp;lt;id&amp;gt; * &amp;lt;fat&amp;gt; + &amp;lt;ter&amp;gt;&lt;/div&gt;&lt;div&gt;A = B * &amp;lt;fat&amp;gt; + &amp;lt;ter&amp;gt;&lt;/div&gt;&lt;div&gt;A = B * &amp;lt;id&amp;gt; + &amp;lt;ter&amp;gt;&lt;/div&gt;&lt;div&gt;A = B * C + &amp;lt;ter&amp;gt;&lt;/div&gt;&lt;div&gt;A = B * C + &amp;lt;fat&amp;gt;&lt;/div&gt;&lt;div&gt;A = B * C + (&amp;lt;exp&amp;gt;)&lt;/div&gt;&lt;div&gt;A = B * C + (&amp;lt;exp&amp;gt; + &amp;lt;ter&amp;gt;)&lt;/div&gt;&lt;div&gt;A = B * C + (&amp;lt;ter&amp;gt; + &amp;lt;ter&amp;gt;)&lt;/div&gt;&lt;div&gt;A = B * C + (&amp;lt;fat&amp;gt; + &amp;lt;ter&amp;gt;)&lt;/div&gt;&lt;div&gt;A = B * C + (&amp;lt;id&amp;gt; + &amp;lt;ter&amp;gt;)&lt;/div&gt;&lt;div&gt;A = B * C + (B + &amp;lt;ter&amp;gt;)&lt;/div&gt;&lt;div&gt;A = B * C + (B + &amp;lt;fat&amp;gt;)&lt;/div&gt;&lt;div&gt;A = B * C + (B + &amp;lt;id&amp;gt;)&lt;/div&gt;&lt;div&gt;A = B * C + (B + C)&lt;br&gt;&lt;br&gt;&lt;/div&gt;&lt;/div&gt;" style="text;html=1;whiteSpace=wrap;overflow=hidden;rounded=0;" parent="1" vertex="1">
          <mxGeometry x="6" y="660" width="164" height="360" as="geometry" />
        </mxCell>
        <mxCell id="ZCPihoy_lIyPwxzsgWCn-54" value="DEC:&lt;span style=&quot;background-color: initial; white-space: pre;&quot;&gt;&#x9;&lt;/span&gt;&lt;span style=&quot;background-color: initial; white-space: pre;&quot;&gt;&#x9;&lt;/span&gt;&lt;span style=&quot;background-color: initial; white-space: pre;&quot;&gt;&#x9;&lt;/span&gt;&lt;span style=&quot;background-color: initial; white-space: pre;&quot;&gt;&#x9;&lt;/span&gt;&lt;div&gt;&amp;lt;atr&amp;gt;&lt;br&gt;&amp;lt;id&amp;gt; = &amp;lt;exp&amp;gt;&lt;div&gt;&amp;lt;id&amp;gt; =&amp;nbsp;&lt;span style=&quot;background-color: initial;&quot;&gt;&amp;lt;exp&amp;gt; + &amp;lt;ter&amp;gt;&lt;br&gt;&lt;/span&gt;&amp;lt;id&amp;gt; =&amp;nbsp;&lt;span style=&quot;background-color: initial;&quot;&gt;&amp;lt;exp&amp;gt; + &amp;lt;fat&amp;gt;&lt;/span&gt;&lt;span style=&quot;background-color: initial;&quot;&gt;&lt;br&gt;&lt;/span&gt;&lt;/div&gt;&lt;/div&gt;&lt;div&gt;&amp;lt;id&amp;gt; =&amp;nbsp;&lt;span style=&quot;background-color: initial;&quot;&gt;&amp;lt;exp&amp;gt; + (&amp;lt;exp&amp;gt;)&lt;/span&gt;&lt;span style=&quot;background-color: initial;&quot;&gt;&lt;br&gt;&lt;/span&gt;&lt;/div&gt;&lt;div&gt;&amp;lt;id&amp;gt; =&amp;nbsp;&lt;span style=&quot;background-color: initial;&quot;&gt;&amp;lt;exp&amp;gt; + (&amp;lt;exp&amp;gt; + &amp;lt;ter&amp;gt;)&lt;/span&gt;&lt;span style=&quot;background-color: initial;&quot;&gt;&lt;br&gt;&lt;/span&gt;&lt;/div&gt;&lt;div&gt;&amp;lt;id&amp;gt; =&amp;nbsp;&lt;span style=&quot;background-color: initial;&quot;&gt;&amp;lt;exp&amp;gt; + (&amp;lt;exp&amp;gt; + &amp;lt;fat&amp;gt;)&lt;/span&gt;&lt;span style=&quot;background-color: initial;&quot;&gt;&lt;br&gt;&lt;/span&gt;&lt;/div&gt;&lt;div&gt;&amp;lt;id&amp;gt; =&amp;nbsp;&lt;span style=&quot;background-color: initial;&quot;&gt;&amp;lt;exp&amp;gt; + (&amp;lt;exp&amp;gt; + &amp;lt;id&amp;gt;)&lt;/span&gt;&lt;span style=&quot;background-color: initial;&quot;&gt;&lt;br&gt;&lt;/span&gt;&lt;/div&gt;&lt;div&gt;&amp;lt;id&amp;gt; =&amp;nbsp;&lt;span style=&quot;background-color: initial;&quot;&gt;&amp;lt;exp&amp;gt; + (&amp;lt;exp&amp;gt; + C)&lt;/span&gt;&lt;span style=&quot;background-color: initial;&quot;&gt;&lt;br&gt;&lt;/span&gt;&lt;/div&gt;&lt;div&gt;&amp;lt;id&amp;gt; =&amp;nbsp;&lt;span style=&quot;background-color: initial;&quot;&gt;&amp;lt;exp&amp;gt; + (&amp;lt;ter&amp;gt; + C)&lt;/span&gt;&lt;span style=&quot;background-color: initial;&quot;&gt;&lt;br&gt;&lt;/span&gt;&lt;/div&gt;&lt;div&gt;&amp;lt;id&amp;gt; =&amp;nbsp;&lt;span style=&quot;background-color: initial;&quot;&gt;&amp;lt;exp&amp;gt; + (&amp;lt;fat&amp;gt; + C)&lt;/span&gt;&lt;span style=&quot;background-color: initial;&quot;&gt;&lt;br&gt;&lt;/span&gt;&lt;/div&gt;&lt;div&gt;&amp;lt;id&amp;gt; =&amp;nbsp;&lt;span style=&quot;background-color: initial;&quot;&gt;&amp;lt;exp&amp;gt; + (&amp;lt;id&amp;gt; + C)&lt;/span&gt;&lt;span style=&quot;background-color: initial;&quot;&gt;&lt;br&gt;&lt;/span&gt;&lt;/div&gt;&lt;div&gt;&amp;lt;id&amp;gt; =&amp;nbsp;&lt;span style=&quot;background-color: initial;&quot;&gt;&amp;lt;exp&amp;gt; + (B + C)&lt;/span&gt;&lt;span style=&quot;background-color: initial;&quot;&gt;&lt;br&gt;&lt;/span&gt;&lt;/div&gt;&lt;div&gt;&amp;lt;id&amp;gt; =&amp;nbsp;&lt;span style=&quot;background-color: initial;&quot;&gt;&amp;lt;ter&amp;gt; + (B + C)&lt;/span&gt;&lt;span style=&quot;background-color: initial;&quot;&gt;&lt;br&gt;&lt;/span&gt;&lt;/div&gt;&lt;div&gt;&amp;lt;id&amp;gt; =&amp;nbsp;&lt;span style=&quot;background-color: initial;&quot;&gt;&amp;lt;ter&amp;gt; * &amp;lt;fat&amp;gt; + (B + C)&lt;/span&gt;&lt;span style=&quot;background-color: initial;&quot;&gt;&lt;br&gt;&lt;/span&gt;&lt;/div&gt;&lt;div&gt;&amp;lt;id&amp;gt; =&amp;nbsp;&lt;span style=&quot;background-color: initial;&quot;&gt;&amp;lt;ter&amp;gt; * &amp;lt;id&amp;gt; + (B + C)&lt;/span&gt;&lt;span style=&quot;background-color: initial;&quot;&gt;&lt;br&gt;&lt;/span&gt;&lt;/div&gt;&lt;div&gt;&amp;lt;id&amp;gt; =&amp;nbsp;&lt;span style=&quot;background-color: initial;&quot;&gt;&amp;lt;ter&amp;gt; * C + (B + C)&lt;/span&gt;&lt;span style=&quot;background-color: initial;&quot;&gt;&lt;br&gt;&lt;/span&gt;&lt;/div&gt;&lt;div&gt;&amp;lt;id&amp;gt; =&amp;nbsp;&lt;span style=&quot;background-color: initial;&quot;&gt;&amp;lt;fat&amp;gt; * C + (B + C)&lt;/span&gt;&lt;span style=&quot;background-color: initial;&quot;&gt;&lt;br&gt;&lt;/span&gt;&lt;/div&gt;&lt;div&gt;&amp;lt;id&amp;gt; =&amp;nbsp;&lt;span style=&quot;background-color: initial;&quot;&gt;&amp;lt;id&amp;gt; * C + (B + C)&lt;/span&gt;&lt;span style=&quot;background-color: initial;&quot;&gt;&lt;br&gt;&lt;/span&gt;&lt;/div&gt;&lt;div&gt;&amp;lt;id&amp;gt; =&amp;nbsp;&lt;span style=&quot;background-color: initial;&quot;&gt;B * C + (B + C)&lt;/span&gt;&lt;span style=&quot;background-color: initial;&quot;&gt;&lt;br&gt;&lt;/span&gt;&lt;/div&gt;&lt;div&gt;A =&amp;nbsp;&lt;span style=&quot;background-color: initial;&quot;&gt;B * C + (B + C)&lt;/span&gt;&lt;/div&gt;" style="text;html=1;whiteSpace=wrap;overflow=hidden;rounded=0;" parent="1" vertex="1">
          <mxGeometry x="185" y="660" width="200" height="360" as="geometry" />
        </mxCell>
        <mxCell id="ZCPihoy_lIyPwxzsgWCn-56" value="43)  A = B * C + C * B + A" style="text;whiteSpace=wrap;html=1;" parent="1" vertex="1">
          <mxGeometry x="450" width="150" height="40" as="geometry" />
        </mxCell>
        <mxCell id="ZCPihoy_lIyPwxzsgWCn-70" style="edgeStyle=orthogonalEdgeStyle;rounded=0;orthogonalLoop=1;jettySize=auto;html=1;exitX=0.5;exitY=1;exitDx=0;exitDy=0;entryX=0.5;entryY=0;entryDx=0;entryDy=0;" parent="1" source="ZCPihoy_lIyPwxzsgWCn-73" target="ZCPihoy_lIyPwxzsgWCn-75" edge="1">
          <mxGeometry relative="1" as="geometry" />
        </mxCell>
        <mxCell id="ZCPihoy_lIyPwxzsgWCn-71" style="edgeStyle=orthogonalEdgeStyle;rounded=0;orthogonalLoop=1;jettySize=auto;html=1;exitX=0.5;exitY=1;exitDx=0;exitDy=0;entryX=0.5;entryY=0;entryDx=0;entryDy=0;" parent="1" source="ZCPihoy_lIyPwxzsgWCn-73" target="ZCPihoy_lIyPwxzsgWCn-80" edge="1">
          <mxGeometry relative="1" as="geometry">
            <Array as="points">
              <mxPoint x="518" y="90" />
              <mxPoint x="555" y="90" />
            </Array>
          </mxGeometry>
        </mxCell>
        <mxCell id="ZCPihoy_lIyPwxzsgWCn-72" value="&lt;font style=&quot;font-size: 12px;&quot;&gt;=&lt;/font&gt;" style="edgeLabel;html=1;align=center;verticalAlign=middle;resizable=0;points=[];" parent="ZCPihoy_lIyPwxzsgWCn-71" vertex="1" connectable="0">
          <mxGeometry x="-0.7161" y="1" relative="1" as="geometry">
            <mxPoint x="-1" y="-1" as="offset" />
          </mxGeometry>
        </mxCell>
        <mxCell id="ZCPihoy_lIyPwxzsgWCn-73" value="&amp;lt;atr&amp;gt;" style="text;whiteSpace=wrap;html=1;" parent="1" vertex="1">
          <mxGeometry x="500" y="40" width="35" height="30" as="geometry" />
        </mxCell>
        <mxCell id="ZCPihoy_lIyPwxzsgWCn-74" style="edgeStyle=orthogonalEdgeStyle;rounded=0;orthogonalLoop=1;jettySize=auto;html=1;exitX=0.5;exitY=1;exitDx=0;exitDy=0;" parent="1" source="ZCPihoy_lIyPwxzsgWCn-75" edge="1">
          <mxGeometry relative="1" as="geometry">
            <mxPoint x="470.0689655172414" y="180" as="targetPoint" />
          </mxGeometry>
        </mxCell>
        <mxCell id="ZCPihoy_lIyPwxzsgWCn-75" value="&amp;lt;id&amp;gt;" style="text;whiteSpace=wrap;html=1;" parent="1" vertex="1">
          <mxGeometry x="455" y="110" width="30" height="30" as="geometry" />
        </mxCell>
        <mxCell id="ZCPihoy_lIyPwxzsgWCn-76" style="edgeStyle=orthogonalEdgeStyle;rounded=0;orthogonalLoop=1;jettySize=auto;html=1;exitX=0.5;exitY=1;exitDx=0;exitDy=0;entryX=0.5;entryY=0;entryDx=0;entryDy=0;" parent="1" source="ZCPihoy_lIyPwxzsgWCn-80" target="ZCPihoy_lIyPwxzsgWCn-81" edge="1">
          <mxGeometry relative="1" as="geometry" />
        </mxCell>
        <mxCell id="ZCPihoy_lIyPwxzsgWCn-77" style="edgeStyle=orthogonalEdgeStyle;rounded=0;orthogonalLoop=1;jettySize=auto;html=1;exitX=1;exitY=1;exitDx=0;exitDy=0;entryX=0.75;entryY=0;entryDx=0;entryDy=0;" parent="1" source="ZCPihoy_lIyPwxzsgWCn-80" target="ZCPihoy_lIyPwxzsgWCn-81" edge="1">
          <mxGeometry relative="1" as="geometry" />
        </mxCell>
        <mxCell id="ZCPihoy_lIyPwxzsgWCn-78" style="edgeStyle=orthogonalEdgeStyle;rounded=0;orthogonalLoop=1;jettySize=auto;html=1;exitX=0;exitY=1;exitDx=0;exitDy=0;entryX=0.25;entryY=0;entryDx=0;entryDy=0;" parent="1" source="ZCPihoy_lIyPwxzsgWCn-80" target="ZCPihoy_lIyPwxzsgWCn-81" edge="1">
          <mxGeometry relative="1" as="geometry" />
        </mxCell>
        <mxCell id="ZCPihoy_lIyPwxzsgWCn-79" style="edgeStyle=none;rounded=0;orthogonalLoop=1;jettySize=auto;html=1;exitX=0;exitY=1;exitDx=0;exitDy=0;endArrow=none;endFill=0;entryX=1;entryY=1;entryDx=0;entryDy=0;" parent="1" source="ZCPihoy_lIyPwxzsgWCn-80" target="ZCPihoy_lIyPwxzsgWCn-80" edge="1">
          <mxGeometry relative="1" as="geometry">
            <mxPoint x="585" y="140" as="targetPoint" />
          </mxGeometry>
        </mxCell>
        <mxCell id="ZCPihoy_lIyPwxzsgWCn-80" value="&amp;lt;exp&amp;gt;" style="text;whiteSpace=wrap;html=1;" parent="1" vertex="1">
          <mxGeometry x="535" y="110" width="40" height="30" as="geometry" />
        </mxCell>
        <mxCell id="ZCPihoy_lIyPwxzsgWCn-90" style="edgeStyle=orthogonalEdgeStyle;rounded=0;orthogonalLoop=1;jettySize=auto;html=1;exitX=0.25;exitY=1;exitDx=0;exitDy=0;endArrow=none;endFill=0;" parent="1" source="ZCPihoy_lIyPwxzsgWCn-81" edge="1">
          <mxGeometry relative="1" as="geometry">
            <mxPoint x="535" y="220" as="targetPoint" />
          </mxGeometry>
        </mxCell>
        <mxCell id="ZCPihoy_lIyPwxzsgWCn-213" style="edgeStyle=orthogonalEdgeStyle;rounded=0;orthogonalLoop=1;jettySize=auto;html=1;exitX=0.75;exitY=1;exitDx=0;exitDy=0;entryX=0.5;entryY=0;entryDx=0;entryDy=0;" parent="1" source="ZCPihoy_lIyPwxzsgWCn-81" target="ZCPihoy_lIyPwxzsgWCn-215" edge="1">
          <mxGeometry relative="1" as="geometry">
            <mxPoint x="690" y="240" as="targetPoint" />
          </mxGeometry>
        </mxCell>
        <mxCell id="ZCPihoy_lIyPwxzsgWCn-81" value="&amp;lt;exp&amp;gt; + &amp;lt;ter&amp;gt;" style="text;whiteSpace=wrap;html=1;" parent="1" vertex="1">
          <mxGeometry x="515" y="170" width="80" height="20" as="geometry" />
        </mxCell>
        <mxCell id="ZCPihoy_lIyPwxzsgWCn-82" style="edgeStyle=orthogonalEdgeStyle;rounded=0;orthogonalLoop=1;jettySize=auto;html=1;exitX=0.5;exitY=1;exitDx=0;exitDy=0;" parent="1" source="ZCPihoy_lIyPwxzsgWCn-80" target="ZCPihoy_lIyPwxzsgWCn-80" edge="1">
          <mxGeometry relative="1" as="geometry" />
        </mxCell>
        <mxCell id="ZCPihoy_lIyPwxzsgWCn-83" value="&lt;span style=&quot;color: rgb(0, 0, 0); font-family: Helvetica; font-size: 12px; font-style: normal; font-variant-ligatures: normal; font-variant-caps: normal; font-weight: 400; letter-spacing: normal; orphans: 2; text-align: left; text-indent: 0px; text-transform: none; widows: 2; word-spacing: 0px; -webkit-text-stroke-width: 0px; white-space: normal; background-color: rgb(251, 251, 251); text-decoration-thickness: initial; text-decoration-style: initial; text-decoration-color: initial; display: inline !important; float: none;&quot;&gt;A&lt;/span&gt;" style="text;whiteSpace=wrap;html=1;" parent="1" vertex="1">
          <mxGeometry x="465" y="180" width="10" height="30" as="geometry" />
        </mxCell>
        <mxCell id="ZCPihoy_lIyPwxzsgWCn-85" style="edgeStyle=orthogonalEdgeStyle;rounded=0;orthogonalLoop=1;jettySize=auto;html=1;exitX=0.5;exitY=1;exitDx=0;exitDy=0;entryX=0.5;entryY=0;entryDx=0;entryDy=0;" parent="1" edge="1">
          <mxGeometry relative="1" as="geometry">
            <mxPoint x="535" y="220" as="sourcePoint" />
            <mxPoint x="535" y="250" as="targetPoint" />
          </mxGeometry>
        </mxCell>
        <mxCell id="ZCPihoy_lIyPwxzsgWCn-86" style="edgeStyle=orthogonalEdgeStyle;rounded=0;orthogonalLoop=1;jettySize=auto;html=1;exitX=1;exitY=1;exitDx=0;exitDy=0;entryX=0.75;entryY=0;entryDx=0;entryDy=0;" parent="1" edge="1">
          <mxGeometry relative="1" as="geometry">
            <mxPoint x="555" y="220" as="sourcePoint" />
            <mxPoint x="555" y="250" as="targetPoint" />
          </mxGeometry>
        </mxCell>
        <mxCell id="ZCPihoy_lIyPwxzsgWCn-87" style="edgeStyle=orthogonalEdgeStyle;rounded=0;orthogonalLoop=1;jettySize=auto;html=1;exitX=0;exitY=1;exitDx=0;exitDy=0;entryX=0.25;entryY=0;entryDx=0;entryDy=0;" parent="1" edge="1">
          <mxGeometry relative="1" as="geometry">
            <mxPoint x="515" y="220" as="sourcePoint" />
            <mxPoint x="515" y="250" as="targetPoint" />
          </mxGeometry>
        </mxCell>
        <mxCell id="ZCPihoy_lIyPwxzsgWCn-88" style="edgeStyle=none;rounded=0;orthogonalLoop=1;jettySize=auto;html=1;exitX=0;exitY=1;exitDx=0;exitDy=0;endArrow=none;endFill=0;entryX=1;entryY=1;entryDx=0;entryDy=0;" parent="1" edge="1">
          <mxGeometry relative="1" as="geometry">
            <mxPoint x="555" y="220" as="targetPoint" />
            <mxPoint x="515" y="220" as="sourcePoint" />
          </mxGeometry>
        </mxCell>
        <mxCell id="ZCPihoy_lIyPwxzsgWCn-89" style="edgeStyle=orthogonalEdgeStyle;rounded=0;orthogonalLoop=1;jettySize=auto;html=1;exitX=0.5;exitY=1;exitDx=0;exitDy=0;" parent="1" edge="1">
          <mxGeometry relative="1" as="geometry">
            <mxPoint x="535" y="220" as="sourcePoint" />
            <mxPoint x="535" y="220" as="targetPoint" />
          </mxGeometry>
        </mxCell>
        <mxCell id="ZCPihoy_lIyPwxzsgWCn-168" style="edgeStyle=orthogonalEdgeStyle;rounded=0;orthogonalLoop=1;jettySize=auto;html=1;exitX=0.75;exitY=1;exitDx=0;exitDy=0;endArrow=none;endFill=0;" parent="1" source="ZCPihoy_lIyPwxzsgWCn-92" edge="1">
          <mxGeometry relative="1" as="geometry">
            <mxPoint x="600" y="320" as="targetPoint" />
            <Array as="points">
              <mxPoint x="555" y="295" />
              <mxPoint x="590" y="295" />
              <mxPoint x="590" y="320" />
            </Array>
          </mxGeometry>
        </mxCell>
        <mxCell id="ZCPihoy_lIyPwxzsgWCn-92" value="&amp;lt;exp&amp;gt; + &amp;lt;ter&amp;gt;" style="text;whiteSpace=wrap;html=1;" parent="1" vertex="1">
          <mxGeometry x="495" y="250" width="80" height="20" as="geometry" />
        </mxCell>
        <mxCell id="ZCPihoy_lIyPwxzsgWCn-135" style="edgeStyle=orthogonalEdgeStyle;rounded=0;orthogonalLoop=1;jettySize=auto;html=1;exitX=0.5;exitY=1;exitDx=0;exitDy=0;entryX=0.5;entryY=0;entryDx=0;entryDy=0;" parent="1" edge="1">
          <mxGeometry relative="1" as="geometry">
            <mxPoint x="514.5" y="330" as="sourcePoint" />
            <mxPoint x="514.5" y="360" as="targetPoint" />
          </mxGeometry>
        </mxCell>
        <mxCell id="ZCPihoy_lIyPwxzsgWCn-136" style="edgeStyle=orthogonalEdgeStyle;rounded=0;orthogonalLoop=1;jettySize=auto;html=1;exitX=1;exitY=1;exitDx=0;exitDy=0;entryX=0.75;entryY=0;entryDx=0;entryDy=0;" parent="1" edge="1">
          <mxGeometry relative="1" as="geometry">
            <mxPoint x="529.5" y="330" as="sourcePoint" />
            <mxPoint x="532.5" y="360" as="targetPoint" />
          </mxGeometry>
        </mxCell>
        <mxCell id="ZCPihoy_lIyPwxzsgWCn-137" style="edgeStyle=orthogonalEdgeStyle;rounded=0;orthogonalLoop=1;jettySize=auto;html=1;exitX=0;exitY=1;exitDx=0;exitDy=0;entryX=0.25;entryY=0;entryDx=0;entryDy=0;" parent="1" edge="1">
          <mxGeometry relative="1" as="geometry">
            <mxPoint x="499.5" y="330" as="sourcePoint" />
            <mxPoint x="497.5" y="360" as="targetPoint" />
          </mxGeometry>
        </mxCell>
        <mxCell id="ZCPihoy_lIyPwxzsgWCn-138" style="edgeStyle=none;rounded=0;orthogonalLoop=1;jettySize=auto;html=1;exitX=0;exitY=1;exitDx=0;exitDy=0;endArrow=none;endFill=0;entryX=1;entryY=1;entryDx=0;entryDy=0;" parent="1" edge="1">
          <mxGeometry relative="1" as="geometry">
            <mxPoint x="529.5" y="330" as="targetPoint" />
            <mxPoint x="499.5" y="330" as="sourcePoint" />
          </mxGeometry>
        </mxCell>
        <mxCell id="ZCPihoy_lIyPwxzsgWCn-139" style="edgeStyle=orthogonalEdgeStyle;rounded=0;orthogonalLoop=1;jettySize=auto;html=1;exitX=0.5;exitY=1;exitDx=0;exitDy=0;" parent="1" edge="1">
          <mxGeometry relative="1" as="geometry">
            <mxPoint x="514.5" y="330" as="sourcePoint" />
            <mxPoint x="514.5" y="330" as="targetPoint" />
          </mxGeometry>
        </mxCell>
        <mxCell id="ZCPihoy_lIyPwxzsgWCn-148" style="edgeStyle=orthogonalEdgeStyle;rounded=0;orthogonalLoop=1;jettySize=auto;html=1;exitX=0.25;exitY=1;exitDx=0;exitDy=0;entryX=0.5;entryY=0;entryDx=0;entryDy=0;" parent="1" source="ZCPihoy_lIyPwxzsgWCn-141" target="ZCPihoy_lIyPwxzsgWCn-144" edge="1">
          <mxGeometry relative="1" as="geometry" />
        </mxCell>
        <mxCell id="ZCPihoy_lIyPwxzsgWCn-152" style="edgeStyle=orthogonalEdgeStyle;rounded=0;orthogonalLoop=1;jettySize=auto;html=1;exitX=0.75;exitY=1;exitDx=0;exitDy=0;entryX=0.5;entryY=0;entryDx=0;entryDy=0;" parent="1" source="ZCPihoy_lIyPwxzsgWCn-141" target="ZCPihoy_lIyPwxzsgWCn-150" edge="1">
          <mxGeometry relative="1" as="geometry" />
        </mxCell>
        <mxCell id="ZCPihoy_lIyPwxzsgWCn-141" value="&amp;lt;ter&amp;gt; * &amp;lt;fat&amp;gt;" style="text;whiteSpace=wrap;html=1;" parent="1" vertex="1">
          <mxGeometry x="480" y="360" width="70" height="20" as="geometry" />
        </mxCell>
        <mxCell id="ZCPihoy_lIyPwxzsgWCn-143" style="edgeStyle=orthogonalEdgeStyle;rounded=0;orthogonalLoop=1;jettySize=auto;html=1;exitX=0.5;exitY=1;exitDx=0;exitDy=0;entryX=0.5;entryY=0;entryDx=0;entryDy=0;" parent="1" source="ZCPihoy_lIyPwxzsgWCn-144" target="ZCPihoy_lIyPwxzsgWCn-146" edge="1">
          <mxGeometry relative="1" as="geometry" />
        </mxCell>
        <mxCell id="ZCPihoy_lIyPwxzsgWCn-144" value="&lt;span style=&quot;color: rgb(0, 0, 0); font-family: Helvetica; font-size: 12px; font-style: normal; font-variant-ligatures: normal; font-variant-caps: normal; font-weight: 400; letter-spacing: normal; orphans: 2; text-align: left; text-indent: 0px; text-transform: none; widows: 2; word-spacing: 0px; -webkit-text-stroke-width: 0px; white-space: normal; background-color: rgb(251, 251, 251); text-decoration-thickness: initial; text-decoration-style: initial; text-decoration-color: initial; display: inline !important; float: none;&quot;&gt;&amp;lt;fat&amp;gt;&lt;/span&gt;" style="text;whiteSpace=wrap;html=1;" parent="1" vertex="1">
          <mxGeometry x="482.5" y="410" width="30" height="30" as="geometry" />
        </mxCell>
        <mxCell id="ZCPihoy_lIyPwxzsgWCn-145" style="edgeStyle=orthogonalEdgeStyle;rounded=0;orthogonalLoop=1;jettySize=auto;html=1;exitX=0.5;exitY=1;exitDx=0;exitDy=0;" parent="1" source="ZCPihoy_lIyPwxzsgWCn-146" edge="1">
          <mxGeometry relative="1" as="geometry">
            <mxPoint x="497.5689655172414" y="530" as="targetPoint" />
          </mxGeometry>
        </mxCell>
        <mxCell id="ZCPihoy_lIyPwxzsgWCn-146" value="&amp;lt;id&amp;gt;" style="text;whiteSpace=wrap;html=1;" parent="1" vertex="1">
          <mxGeometry x="482.5" y="470" width="30" height="30" as="geometry" />
        </mxCell>
        <mxCell id="ZCPihoy_lIyPwxzsgWCn-147" value="&lt;span style=&quot;color: rgb(0, 0, 0); font-family: Helvetica; font-size: 12px; font-style: normal; font-variant-ligatures: normal; font-variant-caps: normal; font-weight: 400; letter-spacing: normal; orphans: 2; text-align: left; text-indent: 0px; text-transform: none; widows: 2; word-spacing: 0px; -webkit-text-stroke-width: 0px; white-space: normal; background-color: rgb(251, 251, 251); text-decoration-thickness: initial; text-decoration-style: initial; text-decoration-color: initial; display: inline !important; float: none;&quot;&gt;B&lt;/span&gt;" style="text;whiteSpace=wrap;html=1;" parent="1" vertex="1">
          <mxGeometry x="492.5" y="530" width="10" height="30" as="geometry" />
        </mxCell>
        <mxCell id="ZCPihoy_lIyPwxzsgWCn-156" style="edgeStyle=orthogonalEdgeStyle;rounded=0;orthogonalLoop=1;jettySize=auto;html=1;exitX=0.5;exitY=1;exitDx=0;exitDy=0;entryX=0.5;entryY=0;entryDx=0;entryDy=0;" parent="1" source="ZCPihoy_lIyPwxzsgWCn-150" target="ZCPihoy_lIyPwxzsgWCn-151" edge="1">
          <mxGeometry relative="1" as="geometry" />
        </mxCell>
        <mxCell id="ZCPihoy_lIyPwxzsgWCn-150" value="&amp;lt;id&amp;gt;" style="text;whiteSpace=wrap;html=1;" parent="1" vertex="1">
          <mxGeometry x="517.5" y="410" width="30" height="30" as="geometry" />
        </mxCell>
        <mxCell id="ZCPihoy_lIyPwxzsgWCn-151" value="&lt;span style=&quot;color: rgb(0, 0, 0); font-family: Helvetica; font-size: 12px; font-style: normal; font-variant-ligatures: normal; font-variant-caps: normal; font-weight: 400; letter-spacing: normal; orphans: 2; text-align: left; text-indent: 0px; text-transform: none; widows: 2; word-spacing: 0px; -webkit-text-stroke-width: 0px; white-space: normal; background-color: rgb(251, 251, 251); text-decoration-thickness: initial; text-decoration-style: initial; text-decoration-color: initial; display: inline !important; float: none;&quot;&gt;C&lt;/span&gt;" style="text;whiteSpace=wrap;html=1;" parent="1" vertex="1">
          <mxGeometry x="527.5" y="470" width="10" height="30" as="geometry" />
        </mxCell>
        <mxCell id="ZCPihoy_lIyPwxzsgWCn-169" style="edgeStyle=orthogonalEdgeStyle;rounded=0;orthogonalLoop=1;jettySize=auto;html=1;exitX=0.5;exitY=1;exitDx=0;exitDy=0;entryX=0.5;entryY=0;entryDx=0;entryDy=0;" parent="1" edge="1">
          <mxGeometry relative="1" as="geometry">
            <mxPoint x="615" y="320" as="sourcePoint" />
            <mxPoint x="615" y="350" as="targetPoint" />
          </mxGeometry>
        </mxCell>
        <mxCell id="ZCPihoy_lIyPwxzsgWCn-170" style="edgeStyle=orthogonalEdgeStyle;rounded=0;orthogonalLoop=1;jettySize=auto;html=1;exitX=1;exitY=1;exitDx=0;exitDy=0;entryX=0.75;entryY=0;entryDx=0;entryDy=0;" parent="1" edge="1">
          <mxGeometry relative="1" as="geometry">
            <mxPoint x="635" y="320" as="sourcePoint" />
            <mxPoint x="635" y="350" as="targetPoint" />
          </mxGeometry>
        </mxCell>
        <mxCell id="ZCPihoy_lIyPwxzsgWCn-171" style="edgeStyle=orthogonalEdgeStyle;rounded=0;orthogonalLoop=1;jettySize=auto;html=1;exitX=0;exitY=1;exitDx=0;exitDy=0;entryX=0.25;entryY=0;entryDx=0;entryDy=0;" parent="1" edge="1">
          <mxGeometry relative="1" as="geometry">
            <mxPoint x="595" y="320" as="sourcePoint" />
            <mxPoint x="595" y="350" as="targetPoint" />
          </mxGeometry>
        </mxCell>
        <mxCell id="ZCPihoy_lIyPwxzsgWCn-172" style="edgeStyle=none;rounded=0;orthogonalLoop=1;jettySize=auto;html=1;exitX=0;exitY=1;exitDx=0;exitDy=0;endArrow=none;endFill=0;entryX=1;entryY=1;entryDx=0;entryDy=0;" parent="1" edge="1">
          <mxGeometry relative="1" as="geometry">
            <mxPoint x="635" y="320" as="targetPoint" />
            <mxPoint x="595" y="320" as="sourcePoint" />
          </mxGeometry>
        </mxCell>
        <mxCell id="ZCPihoy_lIyPwxzsgWCn-173" style="edgeStyle=orthogonalEdgeStyle;rounded=0;orthogonalLoop=1;jettySize=auto;html=1;exitX=0.5;exitY=1;exitDx=0;exitDy=0;" parent="1" edge="1">
          <mxGeometry relative="1" as="geometry">
            <mxPoint x="615" y="320" as="sourcePoint" />
            <mxPoint x="615" y="320" as="targetPoint" />
          </mxGeometry>
        </mxCell>
        <mxCell id="ZCPihoy_lIyPwxzsgWCn-192" style="edgeStyle=orthogonalEdgeStyle;rounded=0;orthogonalLoop=1;jettySize=auto;html=1;exitX=0.25;exitY=1;exitDx=0;exitDy=0;" parent="1" edge="1">
          <mxGeometry relative="1" as="geometry">
            <mxPoint x="515" y="300" as="targetPoint" />
            <mxPoint x="515" y="270" as="sourcePoint" />
          </mxGeometry>
        </mxCell>
        <mxCell id="ZCPihoy_lIyPwxzsgWCn-193" value="&amp;lt;ter&amp;gt;" style="text;whiteSpace=wrap;html=1;" parent="1" vertex="1">
          <mxGeometry x="500" y="300" width="30" height="30" as="geometry" />
        </mxCell>
        <mxCell id="ZCPihoy_lIyPwxzsgWCn-195" style="edgeStyle=orthogonalEdgeStyle;rounded=0;orthogonalLoop=1;jettySize=auto;html=1;exitX=0.25;exitY=1;exitDx=0;exitDy=0;" parent="1" source="ZCPihoy_lIyPwxzsgWCn-194" edge="1">
          <mxGeometry relative="1" as="geometry">
            <mxPoint x="597.608695652174" y="410" as="targetPoint" />
          </mxGeometry>
        </mxCell>
        <mxCell id="ZCPihoy_lIyPwxzsgWCn-194" value="&amp;lt;ter&amp;gt; * &amp;lt;fat&amp;gt;" style="text;whiteSpace=wrap;html=1;" parent="1" vertex="1">
          <mxGeometry x="580" y="350" width="70" height="20" as="geometry" />
        </mxCell>
        <mxCell id="ZCPihoy_lIyPwxzsgWCn-208" style="edgeStyle=orthogonalEdgeStyle;rounded=0;orthogonalLoop=1;jettySize=auto;html=1;exitX=0.5;exitY=1;exitDx=0;exitDy=0;entryX=0.5;entryY=0;entryDx=0;entryDy=0;" parent="1" source="ZCPihoy_lIyPwxzsgWCn-204" target="ZCPihoy_lIyPwxzsgWCn-206" edge="1">
          <mxGeometry relative="1" as="geometry" />
        </mxCell>
        <mxCell id="ZCPihoy_lIyPwxzsgWCn-204" value="&lt;span style=&quot;color: rgb(0, 0, 0); font-family: Helvetica; font-size: 12px; font-style: normal; font-variant-ligatures: normal; font-variant-caps: normal; font-weight: 400; letter-spacing: normal; orphans: 2; text-align: left; text-indent: 0px; text-transform: none; widows: 2; word-spacing: 0px; -webkit-text-stroke-width: 0px; white-space: normal; background-color: rgb(251, 251, 251); text-decoration-thickness: initial; text-decoration-style: initial; text-decoration-color: initial; display: inline !important; float: none;&quot;&gt;&amp;lt;fat&amp;gt;&lt;/span&gt;" style="text;whiteSpace=wrap;html=1;" parent="1" vertex="1">
          <mxGeometry x="580" y="410" width="30" height="30" as="geometry" />
        </mxCell>
        <mxCell id="ZCPihoy_lIyPwxzsgWCn-205" style="edgeStyle=orthogonalEdgeStyle;rounded=0;orthogonalLoop=1;jettySize=auto;html=1;exitX=0.5;exitY=1;exitDx=0;exitDy=0;" parent="1" source="ZCPihoy_lIyPwxzsgWCn-206" edge="1">
          <mxGeometry relative="1" as="geometry">
            <mxPoint x="595.0689655172414" y="530" as="targetPoint" />
          </mxGeometry>
        </mxCell>
        <mxCell id="ZCPihoy_lIyPwxzsgWCn-206" value="&amp;lt;id&amp;gt;" style="text;whiteSpace=wrap;html=1;" parent="1" vertex="1">
          <mxGeometry x="580" y="470" width="30" height="30" as="geometry" />
        </mxCell>
        <mxCell id="ZCPihoy_lIyPwxzsgWCn-207" value="&lt;span style=&quot;color: rgb(0, 0, 0); font-family: Helvetica; font-size: 12px; font-style: normal; font-variant-ligatures: normal; font-variant-caps: normal; font-weight: 400; letter-spacing: normal; orphans: 2; text-align: left; text-indent: 0px; text-transform: none; widows: 2; word-spacing: 0px; -webkit-text-stroke-width: 0px; white-space: normal; background-color: rgb(251, 251, 251); text-decoration-thickness: initial; text-decoration-style: initial; text-decoration-color: initial; display: inline !important; float: none;&quot;&gt;C&lt;/span&gt;" style="text;whiteSpace=wrap;html=1;" parent="1" vertex="1">
          <mxGeometry x="590" y="530" width="10" height="30" as="geometry" />
        </mxCell>
        <mxCell id="ZCPihoy_lIyPwxzsgWCn-209" style="edgeStyle=orthogonalEdgeStyle;rounded=0;orthogonalLoop=1;jettySize=auto;html=1;exitX=0.5;exitY=1;exitDx=0;exitDy=0;entryX=0.5;entryY=0;entryDx=0;entryDy=0;" parent="1" target="ZCPihoy_lIyPwxzsgWCn-211" edge="1">
          <mxGeometry relative="1" as="geometry">
            <mxPoint x="635" y="370" as="sourcePoint" />
          </mxGeometry>
        </mxCell>
        <mxCell id="ZCPihoy_lIyPwxzsgWCn-210" style="edgeStyle=orthogonalEdgeStyle;rounded=0;orthogonalLoop=1;jettySize=auto;html=1;exitX=0.5;exitY=1;exitDx=0;exitDy=0;" parent="1" source="ZCPihoy_lIyPwxzsgWCn-211" edge="1">
          <mxGeometry relative="1" as="geometry">
            <mxPoint x="635.0689655172414" y="460" as="targetPoint" />
          </mxGeometry>
        </mxCell>
        <mxCell id="ZCPihoy_lIyPwxzsgWCn-211" value="&amp;lt;id&amp;gt;" style="text;whiteSpace=wrap;html=1;" parent="1" vertex="1">
          <mxGeometry x="620" y="400" width="30" height="30" as="geometry" />
        </mxCell>
        <mxCell id="ZCPihoy_lIyPwxzsgWCn-212" value="&lt;span style=&quot;color: rgb(0, 0, 0); font-family: Helvetica; font-size: 12px; font-style: normal; font-variant-ligatures: normal; font-variant-caps: normal; font-weight: 400; letter-spacing: normal; orphans: 2; text-align: left; text-indent: 0px; text-transform: none; widows: 2; word-spacing: 0px; -webkit-text-stroke-width: 0px; white-space: normal; background-color: rgb(251, 251, 251); text-decoration-thickness: initial; text-decoration-style: initial; text-decoration-color: initial; display: inline !important; float: none;&quot;&gt;B&lt;/span&gt;" style="text;whiteSpace=wrap;html=1;" parent="1" vertex="1">
          <mxGeometry x="630" y="460" width="10" height="30" as="geometry" />
        </mxCell>
        <mxCell id="ZCPihoy_lIyPwxzsgWCn-214" style="edgeStyle=orthogonalEdgeStyle;rounded=0;orthogonalLoop=1;jettySize=auto;html=1;exitX=0.5;exitY=1;exitDx=0;exitDy=0;entryX=0.5;entryY=0;entryDx=0;entryDy=0;" parent="1" source="ZCPihoy_lIyPwxzsgWCn-215" target="ZCPihoy_lIyPwxzsgWCn-217" edge="1">
          <mxGeometry relative="1" as="geometry" />
        </mxCell>
        <mxCell id="ZCPihoy_lIyPwxzsgWCn-215" value="&lt;span style=&quot;color: rgb(0, 0, 0); font-family: Helvetica; font-size: 12px; font-style: normal; font-variant-ligatures: normal; font-variant-caps: normal; font-weight: 400; letter-spacing: normal; orphans: 2; text-align: left; text-indent: 0px; text-transform: none; widows: 2; word-spacing: 0px; -webkit-text-stroke-width: 0px; white-space: normal; background-color: rgb(251, 251, 251); text-decoration-thickness: initial; text-decoration-style: initial; text-decoration-color: initial; display: inline !important; float: none;&quot;&gt;&amp;lt;fat&amp;gt;&lt;/span&gt;" style="text;whiteSpace=wrap;html=1;" parent="1" vertex="1">
          <mxGeometry x="680" y="240" width="30" height="30" as="geometry" />
        </mxCell>
        <mxCell id="ZCPihoy_lIyPwxzsgWCn-216" style="edgeStyle=orthogonalEdgeStyle;rounded=0;orthogonalLoop=1;jettySize=auto;html=1;exitX=0.5;exitY=1;exitDx=0;exitDy=0;" parent="1" source="ZCPihoy_lIyPwxzsgWCn-217" edge="1">
          <mxGeometry relative="1" as="geometry">
            <mxPoint x="695.0689655172414" y="360" as="targetPoint" />
          </mxGeometry>
        </mxCell>
        <mxCell id="ZCPihoy_lIyPwxzsgWCn-217" value="&amp;lt;id&amp;gt;" style="text;whiteSpace=wrap;html=1;" parent="1" vertex="1">
          <mxGeometry x="680" y="300" width="30" height="30" as="geometry" />
        </mxCell>
        <mxCell id="ZCPihoy_lIyPwxzsgWCn-218" value="&lt;span style=&quot;color: rgb(0, 0, 0); font-family: Helvetica; font-size: 12px; font-style: normal; font-variant-ligatures: normal; font-variant-caps: normal; font-weight: 400; letter-spacing: normal; orphans: 2; text-align: left; text-indent: 0px; text-transform: none; widows: 2; word-spacing: 0px; -webkit-text-stroke-width: 0px; white-space: normal; background-color: rgb(251, 251, 251); text-decoration-thickness: initial; text-decoration-style: initial; text-decoration-color: initial; display: inline !important; float: none;&quot;&gt;A&lt;/span&gt;" style="text;whiteSpace=wrap;html=1;" parent="1" vertex="1">
          <mxGeometry x="690" y="360" width="10" height="30" as="geometry" />
        </mxCell>
        <mxCell id="fxvHSv9ULF0YLq8kyjXp-1" value="DEE:&lt;span style=&quot;background-color: initial; white-space: pre;&quot;&gt;&#x9;&lt;/span&gt;&lt;span style=&quot;background-color: initial; white-space: pre;&quot;&gt;&#x9;&lt;/span&gt;&lt;span style=&quot;background-color: initial; white-space: pre;&quot;&gt;&#x9;&lt;/span&gt;&lt;span style=&quot;background-color: initial; white-space: pre;&quot;&gt;&#x9;&lt;/span&gt;&lt;div&gt;&amp;lt;atr&amp;gt;&lt;br&gt;&amp;lt;id&amp;gt; = &amp;lt;exp&amp;gt;&lt;div&gt;A = &amp;lt;exp&amp;gt;&lt;/div&gt;&lt;div&gt;A = &amp;lt;exp&amp;gt; + &amp;lt;ter&amp;gt;&lt;br&gt;A =&amp;nbsp;&lt;span style=&quot;background-color: initial;&quot;&gt;&amp;lt;exp&amp;gt; + &amp;lt;ter&amp;gt; + &amp;lt;ter&amp;gt;&lt;br&gt;A = &amp;lt;ter&amp;gt; +&amp;nbsp;&lt;/span&gt;&lt;span style=&quot;background-color: initial;&quot;&gt;&amp;lt;ter&amp;gt; + &amp;lt;ter&amp;gt;&lt;/span&gt;&lt;/div&gt;&lt;div&gt;&lt;span style=&quot;background-color: initial;&quot;&gt;A = &amp;lt;ter&amp;gt; * &amp;lt;fat&amp;gt; +&amp;nbsp;&lt;/span&gt;&lt;span style=&quot;background-color: initial;&quot;&gt;&amp;lt;ter&amp;gt; + &amp;lt;ter&amp;gt;&lt;br&gt;A = &amp;lt;fat&amp;gt;&amp;nbsp;&lt;/span&gt;&lt;span style=&quot;background-color: initial;&quot;&gt;* &amp;lt;fat&amp;gt; +&amp;nbsp;&lt;/span&gt;&lt;span style=&quot;background-color: initial;&quot;&gt;&amp;lt;ter&amp;gt; + &amp;lt;ter&amp;gt;&lt;/span&gt;&lt;/div&gt;&lt;/div&gt;&lt;div&gt;&lt;span style=&quot;background-color: initial;&quot;&gt;A = &amp;lt;id&amp;gt;&amp;nbsp;&lt;/span&gt;&lt;span style=&quot;background-color: initial;&quot;&gt;* &amp;lt;fat&amp;gt; +&amp;nbsp;&lt;/span&gt;&lt;span style=&quot;background-color: initial;&quot;&gt;&amp;lt;ter&amp;gt; + &amp;lt;ter&amp;gt;&lt;/span&gt;&lt;span style=&quot;background-color: initial;&quot;&gt;&lt;br&gt;&lt;/span&gt;&lt;/div&gt;&lt;div&gt;&lt;span style=&quot;background-color: initial;&quot;&gt;A = B&amp;nbsp;&lt;/span&gt;&lt;span style=&quot;background-color: initial;&quot;&gt;* &amp;lt;fat&amp;gt; +&amp;nbsp;&lt;/span&gt;&lt;span style=&quot;background-color: initial;&quot;&gt;&amp;lt;ter&amp;gt; + &amp;lt;ter&amp;gt;&lt;/span&gt;&lt;span style=&quot;background-color: initial;&quot;&gt;&lt;br&gt;&lt;/span&gt;&lt;/div&gt;&lt;div&gt;&lt;span style=&quot;background-color: initial;&quot;&gt;A = B&amp;nbsp;&lt;/span&gt;&lt;span style=&quot;background-color: initial;&quot;&gt;* &amp;lt;id&amp;gt; +&amp;nbsp;&lt;/span&gt;&lt;span style=&quot;background-color: initial;&quot;&gt;&amp;lt;ter&amp;gt; + &amp;lt;ter&amp;gt;&lt;/span&gt;&lt;span style=&quot;background-color: initial;&quot;&gt;&lt;br&gt;&lt;/span&gt;&lt;/div&gt;&lt;div&gt;&lt;span style=&quot;background-color: initial;&quot;&gt;A = B&amp;nbsp;&lt;/span&gt;&lt;span style=&quot;background-color: initial;&quot;&gt;* C +&amp;nbsp;&lt;/span&gt;&lt;span style=&quot;background-color: initial;&quot;&gt;&amp;lt;ter&amp;gt; + &amp;lt;ter&amp;gt;&lt;br&gt;&lt;/span&gt;&lt;span style=&quot;background-color: initial;&quot;&gt;A = B&amp;nbsp;&lt;/span&gt;&lt;span style=&quot;background-color: initial;&quot;&gt;* C +&amp;nbsp;&lt;/span&gt;&lt;span style=&quot;background-color: initial;&quot;&gt;&amp;lt;ter&amp;gt; * &amp;lt;fat&amp;gt; + &amp;lt;ter&amp;gt;&lt;/span&gt;&lt;span style=&quot;background-color: initial;&quot;&gt;&lt;br&gt;&lt;/span&gt;&lt;/div&gt;&lt;div&gt;&lt;span style=&quot;background-color: initial;&quot;&gt;A = B&amp;nbsp;&lt;/span&gt;&lt;span style=&quot;background-color: initial;&quot;&gt;* C +&amp;nbsp;&lt;/span&gt;&lt;span style=&quot;background-color: initial;&quot;&gt;&amp;lt;fat&amp;gt; * &amp;lt;fat&amp;gt; + &amp;lt;ter&amp;gt;&lt;/span&gt;&lt;span style=&quot;background-color: initial;&quot;&gt;&lt;br&gt;&lt;/span&gt;&lt;/div&gt;&lt;div&gt;&lt;span style=&quot;background-color: initial;&quot;&gt;A = B&amp;nbsp;&lt;/span&gt;&lt;span style=&quot;background-color: initial;&quot;&gt;* C +&amp;nbsp;&lt;/span&gt;&lt;span style=&quot;background-color: initial;&quot;&gt;&amp;lt;id&amp;gt; * &amp;lt;fat&amp;gt; + &amp;lt;ter&amp;gt;&lt;/span&gt;&lt;span style=&quot;background-color: initial;&quot;&gt;&lt;br&gt;&lt;/span&gt;&lt;/div&gt;&lt;div&gt;&lt;span style=&quot;background-color: initial;&quot;&gt;A = B&amp;nbsp;&lt;/span&gt;&lt;span style=&quot;background-color: initial;&quot;&gt;* C +&amp;nbsp;&lt;/span&gt;&lt;span style=&quot;background-color: initial;&quot;&gt;C * &amp;lt;fat&amp;gt; + &amp;lt;ter&amp;gt;&lt;/span&gt;&lt;span style=&quot;background-color: initial;&quot;&gt;&lt;br&gt;&lt;/span&gt;&lt;/div&gt;&lt;div&gt;&lt;span style=&quot;background-color: initial;&quot;&gt;A = B&amp;nbsp;&lt;/span&gt;&lt;span style=&quot;background-color: initial;&quot;&gt;* C +&amp;nbsp;&lt;/span&gt;&lt;span style=&quot;background-color: initial;&quot;&gt;C * &amp;lt;id&amp;gt; + &amp;lt;ter&amp;gt;&lt;/span&gt;&lt;span style=&quot;background-color: initial;&quot;&gt;&lt;br&gt;&lt;/span&gt;&lt;/div&gt;&lt;div&gt;&lt;span style=&quot;background-color: initial;&quot;&gt;A = B&amp;nbsp;&lt;/span&gt;&lt;span style=&quot;background-color: initial;&quot;&gt;* C +&amp;nbsp;&lt;/span&gt;&lt;span style=&quot;background-color: initial;&quot;&gt;C * B + &amp;lt;ter&amp;gt;&lt;/span&gt;&lt;span style=&quot;background-color: initial;&quot;&gt;&lt;br&gt;&lt;/span&gt;&lt;/div&gt;&lt;div&gt;&lt;span style=&quot;background-color: initial;&quot;&gt;A = B&amp;nbsp;&lt;/span&gt;&lt;span style=&quot;background-color: initial;&quot;&gt;* C +&amp;nbsp;&lt;/span&gt;&lt;span style=&quot;background-color: initial;&quot;&gt;C * B + &amp;lt;fat&amp;gt;&lt;/span&gt;&lt;span style=&quot;background-color: initial;&quot;&gt;&lt;br&gt;&lt;/span&gt;&lt;/div&gt;&lt;div&gt;&lt;span style=&quot;background-color: initial;&quot;&gt;A = B&amp;nbsp;&lt;/span&gt;&lt;span style=&quot;background-color: initial;&quot;&gt;* C +&amp;nbsp;&lt;/span&gt;&lt;span style=&quot;background-color: initial;&quot;&gt;C * B + &amp;lt;id&amp;gt;&lt;/span&gt;&lt;span style=&quot;background-color: initial;&quot;&gt;&lt;br&gt;&lt;/span&gt;&lt;/div&gt;&lt;div&gt;&lt;span style=&quot;background-color: initial;&quot;&gt;A = B&amp;nbsp;&lt;/span&gt;&lt;span style=&quot;background-color: initial;&quot;&gt;* C +&amp;nbsp;&lt;/span&gt;&lt;span style=&quot;background-color: initial;&quot;&gt;C * B + A&lt;/span&gt;&lt;span style=&quot;background-color: initial;&quot;&gt;&lt;br&gt;&lt;/span&gt;&lt;/div&gt;" style="text;html=1;whiteSpace=wrap;overflow=hidden;rounded=0;" vertex="1" parent="1">
          <mxGeometry x="414" y="660" width="176" height="360" as="geometry" />
        </mxCell>
        <mxCell id="fxvHSv9ULF0YLq8kyjXp-2" value="DEC:&lt;span style=&quot;background-color: initial; white-space: pre;&quot;&gt;&#x9;&lt;/span&gt;&lt;span style=&quot;background-color: initial; white-space: pre;&quot;&gt;&#x9;&lt;/span&gt;&lt;span style=&quot;background-color: initial; white-space: pre;&quot;&gt;&#x9;&lt;/span&gt;&lt;span style=&quot;background-color: initial; white-space: pre;&quot;&gt;&#x9;&lt;/span&gt;&lt;div&gt;&amp;lt;atr&amp;gt;&lt;br&gt;&amp;lt;id&amp;gt; = &amp;lt;exp&amp;gt;&lt;div&gt;&amp;lt;id&amp;gt; =&amp;nbsp;&lt;span style=&quot;background-color: initial;&quot;&gt;&amp;lt;exp&amp;gt; + &amp;lt;ter&amp;gt;&lt;br&gt;&lt;/span&gt;&amp;lt;id&amp;gt; =&amp;nbsp;&lt;span style=&quot;background-color: initial;&quot;&gt;&amp;lt;exp&amp;gt; + &amp;lt;fat&amp;gt;&lt;/span&gt;&lt;span style=&quot;background-color: initial;&quot;&gt;&lt;br&gt;&lt;/span&gt;&lt;/div&gt;&lt;/div&gt;&lt;div&gt;&amp;lt;id&amp;gt; =&amp;nbsp;&lt;span style=&quot;background-color: initial;&quot;&gt;&amp;lt;exp&amp;gt; +&amp;nbsp;&lt;/span&gt;&lt;span style=&quot;background-color: initial;&quot;&gt;&amp;lt;id&amp;gt;&lt;/span&gt;&lt;span style=&quot;background-color: initial;&quot;&gt;&lt;br&gt;&lt;/span&gt;&lt;/div&gt;&lt;div&gt;&amp;lt;id&amp;gt; =&amp;nbsp;&lt;span style=&quot;background-color: initial;&quot;&gt;&amp;lt;exp&amp;gt; + A&lt;/span&gt;&lt;span style=&quot;background-color: initial;&quot;&gt;&lt;br&gt;&lt;/span&gt;&lt;/div&gt;&lt;div&gt;&amp;lt;id&amp;gt; =&amp;nbsp;&lt;span style=&quot;background-color: initial;&quot;&gt;&amp;lt;exp&amp;gt; + &amp;lt;ter&amp;gt; + A&lt;/span&gt;&lt;span style=&quot;background-color: initial;&quot;&gt;&lt;br&gt;&lt;/span&gt;&lt;/div&gt;&lt;div&gt;&amp;lt;id&amp;gt; =&amp;nbsp;&lt;span style=&quot;background-color: initial;&quot;&gt;&amp;lt;exp&amp;gt; + &amp;lt;ter&amp;gt; + A&lt;/span&gt;&lt;br&gt;&lt;/div&gt;&lt;div&gt;&amp;lt;id&amp;gt; =&amp;nbsp;&lt;span style=&quot;background-color: initial;&quot;&gt;&amp;lt;exp&amp;gt; + &amp;lt;ter&amp;gt; * &amp;lt;fat&amp;gt; + A&lt;/span&gt;&lt;span style=&quot;background-color: initial;&quot;&gt;&lt;br&gt;&lt;/span&gt;&lt;/div&gt;&lt;div&gt;&amp;lt;id&amp;gt; =&amp;nbsp;&lt;span style=&quot;background-color: initial;&quot;&gt;&amp;lt;exp&amp;gt; + &amp;lt;ter&amp;gt; * &amp;lt;id&amp;gt; + A&lt;/span&gt;&lt;span style=&quot;background-color: initial;&quot;&gt;&lt;br&gt;&lt;/span&gt;&lt;/div&gt;&lt;div&gt;&amp;lt;id&amp;gt; =&amp;nbsp;&lt;span style=&quot;background-color: initial;&quot;&gt;&amp;lt;exp&amp;gt; + &amp;lt;ter&amp;gt; * B + A&lt;/span&gt;&lt;span style=&quot;background-color: initial;&quot;&gt;&lt;br&gt;&lt;/span&gt;&lt;/div&gt;&lt;div&gt;&amp;lt;id&amp;gt; =&amp;nbsp;&lt;span style=&quot;background-color: initial;&quot;&gt;&amp;lt;exp&amp;gt; + &amp;lt;fat&amp;gt; * B + A&lt;/span&gt;&lt;span style=&quot;background-color: initial;&quot;&gt;&lt;br&gt;&lt;/span&gt;&lt;/div&gt;&lt;div&gt;&amp;lt;id&amp;gt; =&amp;nbsp;&lt;span style=&quot;background-color: initial;&quot;&gt;&amp;lt;exp&amp;gt; + &amp;lt;id&amp;gt; * B + A&lt;/span&gt;&lt;span style=&quot;background-color: initial;&quot;&gt;&lt;br&gt;&lt;/span&gt;&lt;/div&gt;&lt;div&gt;&amp;lt;id&amp;gt; =&amp;nbsp;&lt;span style=&quot;background-color: initial;&quot;&gt;&amp;lt;exp&amp;gt; + C * B + A&lt;/span&gt;&lt;span style=&quot;background-color: initial;&quot;&gt;&lt;br&gt;&lt;/span&gt;&lt;/div&gt;&lt;div&gt;&amp;lt;id&amp;gt; =&amp;nbsp;&lt;span style=&quot;background-color: initial;&quot;&gt;&amp;lt;ter&amp;gt; + C * B + A&lt;/span&gt;&lt;span style=&quot;background-color: initial;&quot;&gt;&lt;br&gt;&lt;/span&gt;&lt;/div&gt;&lt;div&gt;&amp;lt;id&amp;gt; =&amp;nbsp;&lt;span style=&quot;background-color: initial;&quot;&gt;&amp;lt;ter&amp;gt; * &amp;lt;fat&amp;gt; + C * B + A&lt;/span&gt;&lt;span style=&quot;background-color: initial;&quot;&gt;&lt;br&gt;&lt;/span&gt;&lt;/div&gt;&lt;div&gt;&amp;lt;id&amp;gt; =&amp;nbsp;&lt;span style=&quot;background-color: initial;&quot;&gt;&amp;lt;ter&amp;gt; * &amp;lt;id&amp;gt; + C * B + A&lt;/span&gt;&lt;span style=&quot;background-color: initial;&quot;&gt;&lt;br&gt;&lt;/span&gt;&lt;/div&gt;&lt;div&gt;&amp;lt;id&amp;gt; =&amp;nbsp;&lt;span style=&quot;background-color: initial;&quot;&gt;&amp;lt;ter&amp;gt; * C + C * B + A&lt;/span&gt;&lt;span style=&quot;background-color: initial;&quot;&gt;&lt;br&gt;&lt;/span&gt;&lt;/div&gt;&lt;div&gt;&amp;lt;id&amp;gt; =&amp;nbsp;&lt;span style=&quot;background-color: initial;&quot;&gt;&amp;lt;fat&amp;gt; * C + C * B + A&lt;/span&gt;&lt;span style=&quot;background-color: initial;&quot;&gt;&lt;br&gt;&lt;/span&gt;&lt;/div&gt;&lt;div&gt;&amp;lt;id&amp;gt; =&amp;nbsp;&lt;span style=&quot;background-color: initial;&quot;&gt;&amp;lt;id&amp;gt; * C + C * B + A&lt;/span&gt;&lt;span style=&quot;background-color: initial;&quot;&gt;&lt;br&gt;&lt;/span&gt;&lt;/div&gt;&lt;div&gt;&amp;lt;id&amp;gt; =&amp;nbsp;&lt;span style=&quot;background-color: initial;&quot;&gt;B * C + C * B + A&lt;/span&gt;&lt;span style=&quot;background-color: initial;&quot;&gt;&lt;br&gt;&lt;/span&gt;&lt;/div&gt;&lt;div&gt;A =&amp;nbsp;&lt;span style=&quot;background-color: initial;&quot;&gt;B * C + C * B + A&lt;/span&gt;&lt;span style=&quot;background-color: initial;&quot;&gt;&lt;br&gt;&lt;/span&gt;&lt;/div&gt;" style="text;html=1;whiteSpace=wrap;overflow=hidden;rounded=0;" vertex="1" parent="1">
          <mxGeometry x="627" y="660" width="200" height="360" as="geometry" />
        </mxCell>
        <mxCell id="fxvHSv9ULF0YLq8kyjXp-4" value="" style="endArrow=none;html=1;rounded=0;" edge="1" parent="1">
          <mxGeometry width="50" height="50" relative="1" as="geometry">
            <mxPoint x="380" y="1160" as="sourcePoint" />
            <mxPoint x="380" as="targetPoint" />
          </mxGeometry>
        </mxCell>
      </root>
    </mxGraphModel>
  </diagram>
</mxfile>
